<svg focusable="false" data-icon="menu" class="svg-inline&#45;&#45;fa fa-times fa-w-10"
     height="384pt" width="384pt" xmlns="http://www.w3.org/2000/svg" viewBox="0 -53 384 384">
  <path fill="currentColor" d="m368 154.667969h-352c-8.832031 0-16-7.167969-16-16s7.167969-16 16-16h352c8.832031 0 16 7.167969 16 16s-7.167969 16-16 16zm0 0"/>
  <path fill="currentColor" d="m368 32h-352c-8.832031 0-16-7.167969-16-16s7.167969-16 16-16h352c8.832031 0 16 7.167969 16 16s-7.167969 16-16 16zm0 0"/>
  <path fill="currentColor" d="m368 277.332031h-352c-8.832031 0-16-7.167969-16-16s7.167969-16 16-16h352c8.832031 0 16 7.167969 16 16s-7.167969 16-16 16zm0 0"/>
</svg>
