<svg width="438" height="97" viewBox="0 0 438 97" fill="none" xmlns="http://www.w3.org/2000/svg">
<path d="M70.472 32.708C66.228 32.708 62.7013 34.2079 59.8933 37.2093C57.0853 40.2106 55.6827 44.0587 55.6827 48.7547C55.6827 53.4827 57.1107 57.3747 59.9693 60.424C62.8267 63.476 66.344 65.0026 70.5227 65.0026C74.8333 65.0026 78.4107 63.5013 81.2507 60.5C84.0907 57.4986 85.512 53.5666 85.512 48.7039C85.512 43.9439 84.0907 40.0853 81.2507 37.1346C78.4107 34.1853 74.8173 32.708 70.472 32.708ZM84.9093 0.311951H98.6413V77.5786H84.9093V70.384C82.228 72.9333 79.54 74.7693 76.844 75.8933C74.148 77.016 71.2253 77.5786 68.0773 77.5786C61.0093 77.5786 54.896 74.836 49.7373 69.3533C44.58 63.8693 42 57.0546 42 48.9053C42 40.4546 44.496 33.5306 49.4867 28.1306C54.4773 22.7306 60.54 20.0306 67.6747 20.0306C70.9573 20.0306 74.0387 20.6533 76.9187 21.892C79.8 23.1333 82.4627 24.9946 84.9093 27.4759V0.311951" fill="#18202C"/>
<path d="M153.623 41.964C152.716 38.9133 150.927 36.4307 148.257 34.5187C145.585 32.6067 142.487 31.6506 138.96 31.6506C135.129 31.6506 131.771 32.7253 128.883 34.8706C127.069 36.2119 125.389 38.576 123.843 41.964H153.623ZM167.356 52.7786H123.24C123.877 56.6706 125.579 59.7613 128.345 62.06C131.112 64.3573 134.641 65.5053 138.935 65.5053C144.065 65.5053 148.475 63.712 152.164 60.1226L163.733 65.556C160.849 69.648 157.395 72.6733 153.371 74.636C149.347 76.596 144.568 77.5786 139.035 77.5786C130.449 77.5786 123.457 74.8693 118.059 69.4547C112.66 64.0373 109.96 57.2546 109.96 49.1066C109.96 40.7559 112.651 33.8226 118.033 28.3053C123.416 22.7893 130.165 20.0306 138.28 20.0306C146.899 20.0306 153.908 22.7893 159.307 28.3053C164.707 33.8226 167.405 41.108 167.405 50.1627L167.356 52.7786" fill="#18202C"/>
<path d="M310.183 32.708C305.857 32.708 302.268 34.1853 299.417 37.1346C296.568 40.0853 295.141 43.944 295.141 48.704C295.141 53.5666 296.568 57.4987 299.417 60.5C302.268 63.5013 305.857 65.0027 310.183 65.0027C314.373 65.0027 317.904 63.476 320.771 60.424C323.639 57.3747 325.072 53.4827 325.072 48.7547C325.072 44.0587 323.664 40.2106 320.847 37.2093C318.029 34.208 314.475 32.708 310.183 32.708V32.708ZM295.747 20.0307V27.476C298.227 24.9946 300.911 23.1333 303.795 21.892C306.679 20.6533 309.763 20.0307 313.049 20.0307C320.193 20.0307 326.263 22.7307 331.259 28.1307C336.256 33.5307 338.753 40.4547 338.753 48.9053C338.753 57.0547 336.172 63.8693 331.008 69.3533C325.844 74.836 319.723 77.5786 312.647 77.5786C309.495 77.5786 306.561 77.016 303.844 75.8933C301.128 74.7693 298.428 72.9333 295.747 70.384V96.1907H282.113V20.0307H295.747" fill="#18202C"/>
<path d="M346.904 20.0306H358.675V28.332C359.949 25.6147 361.641 23.5533 363.755 22.144C365.868 20.736 368.183 20.0306 370.696 20.0306C372.473 20.0306 374.336 20.5026 376.28 21.4399L372.005 33.2613C370.395 32.456 369.071 32.0533 368.031 32.0533C365.917 32.0533 364.133 33.3613 362.673 35.9773C361.215 38.5933 360.485 43.724 360.485 51.3693L360.535 54.036V77.5786H346.904V20.0306Z" fill="#18202C"/>
<path d="M409.003 32.9586C404.737 32.9586 401.184 34.444 398.345 37.4106C395.507 40.3786 394.087 44.176 394.087 48.8053C394.087 53.5666 395.489 57.4239 398.295 60.3733C401.1 63.3253 404.653 64.8013 408.952 64.8013C413.251 64.8013 416.829 63.3093 419.685 60.324C422.54 57.34 423.968 53.5013 423.968 48.8053C423.968 44.1093 422.567 40.2946 419.76 37.3613C416.956 34.4266 413.371 32.9586 409.003 32.9586ZM408.776 20.0306C413.941 20.0306 418.796 21.3226 423.339 23.9039C427.883 26.4879 431.429 29.992 433.977 34.4173C436.528 38.844 437.801 43.624 437.801 48.7547C437.801 53.9187 436.519 58.7479 433.953 63.2426C431.388 67.7373 427.892 71.2493 423.465 73.78C419.037 76.312 414.159 77.5786 408.827 77.5786C400.979 77.5786 394.281 74.7866 388.731 69.2013C383.181 63.6186 380.405 56.836 380.405 48.8547C380.405 40.304 383.54 33.1786 389.812 27.4759C395.312 22.5146 401.633 20.0306 408.776 20.0306" fill="#18202C"/>
<path d="M185.977 20.0307H171.987L190.444 65.7974L197.376 48.18L185.977 20.0307Z" fill="#18202C"/>
<path d="M215.319 20.0306L192.997 77.5786H206.917L229.239 20.0306H215.319Z" fill="#5DC8C4"/>
<path d="M244.32 73.7213L237.173 65.1399L256.692 48.88L237.173 32.6199L244.32 24.0386L268.989 44.5893C270.263 45.6506 271 47.2226 271 48.88C271 50.5373 270.263 52.1093 268.989 53.1706L244.32 73.7213Z" fill="#5DC8C4"/>
<path d="M26.9054 73.7213L34.052 65.1399L14.5334 48.88L34.052 32.6199L26.9054 24.0386L2.23468 44.5893C0.961351 45.6506 0.225342 47.2226 0.225342 48.88C0.225342 50.5373 0.961351 52.1093 2.23468 53.1706L26.9054 73.7213" fill="#5DC8C4"/>
</svg>
