<svg aria-hidden="true" focusable="false" viewBox="0 0 329 73" version="1.1" xmlns="http://www.w3.org/2000/svg" xmlns:xlink="http://www.w3.org/1999/xlink">
  <path d="M52.854,24.781 C49.671,24.781 47.026,25.906 44.92,28.157 C42.814,30.408 41.762,33.294 41.762,36.816 C41.762,40.362 42.833,43.281 44.977,45.568 C47.12,47.857 49.758,49.002 52.892,49.002 C56.125,49.002 58.808,47.876 60.938,45.625 C63.068,43.374 64.134,40.425 64.134,36.778 C64.134,33.208 63.068,30.314 60.938,28.101 C58.808,25.889 56.113,24.781 52.854,24.781 Z M63.682,0.484 L73.981,0.484 L73.981,58.434 L63.682,58.434 L63.682,53.038 C61.671,54.95 59.655,56.327 57.633,57.17 C55.611,58.012 53.419,58.434 51.058,58.434 C45.757,58.434 41.172,56.377 37.303,52.265 C33.435,48.152 31.5,43.041 31.5,36.929 C31.5,30.591 33.372,25.398 37.115,21.348 C40.858,17.298 45.405,15.273 50.756,15.273 C53.218,15.273 55.529,15.74 57.689,16.669 C59.85,17.6 61.847,18.996 63.682,20.857 L63.682,0.484 L63.682,0.484 Z" id="Fill-4" fill="#F8F8F8"></path>
  <path d="M115.217,31.723 C114.537,29.435 113.195,27.573 111.193,26.139 C109.189,24.705 106.865,23.988 104.22,23.988 C101.347,23.988 98.828,24.794 96.662,26.403 C95.302,27.409 94.042,29.182 92.882,31.723 L115.217,31.723 Z M125.517,39.834 L92.43,39.834 C92.908,42.753 94.184,45.071 96.259,46.795 C98.334,48.518 100.981,49.379 104.201,49.379 C108.049,49.379 111.356,48.034 114.123,45.342 L122.8,49.417 C120.637,52.486 118.046,54.755 115.028,56.227 C112.01,57.697 108.426,58.434 104.276,58.434 C97.837,58.434 92.593,56.402 88.544,52.341 C84.495,48.278 82.47,43.191 82.47,37.08 C82.47,30.817 84.488,25.617 88.525,21.479 C92.562,17.342 97.624,15.273 103.71,15.273 C110.174,15.273 115.431,17.342 119.48,21.479 C123.53,25.617 125.554,31.081 125.554,37.872 L125.517,39.834 L125.517,39.834 Z" id="Fill-5" fill="#F8F8F8"></path>
  <path d="M232.637,24.781 C229.393,24.781 226.701,25.889 224.563,28.101 C222.426,30.314 221.356,33.208 221.356,36.778 C221.356,40.425 222.426,43.374 224.563,45.625 C226.701,47.876 229.393,49.002 232.637,49.002 C235.78,49.002 238.428,47.857 240.578,45.568 C242.729,43.281 243.804,40.362 243.804,36.816 C243.804,33.294 242.748,30.408 240.635,28.157 C238.522,25.906 235.856,24.781 232.637,24.781 Z M221.81,15.273 L221.81,20.857 C223.67,18.996 225.683,17.6 227.846,16.669 C230.009,15.74 232.322,15.273 234.787,15.273 C240.145,15.273 244.697,17.298 248.444,21.348 C252.192,25.398 254.065,30.591 254.065,36.929 C254.065,43.041 252.129,48.152 248.256,52.265 C244.383,56.377 239.792,58.434 234.485,58.434 C232.121,58.434 229.921,58.012 227.883,57.17 C225.846,56.327 223.821,54.95 221.81,53.038 L221.81,72.393 L211.585,72.393 L211.585,15.273 L221.81,15.273 L221.81,15.273 Z" id="Fill-6" fill="#F8F8F8"></path>
  <path d="M260.178,15.273 L269.006,15.273 L269.006,21.499 C269.962,19.461 271.231,17.915 272.816,16.858 C274.401,15.802 276.137,15.273 278.022,15.273 C279.355,15.273 280.752,15.627 282.21,16.33 L279.004,25.196 C277.796,24.592 276.803,24.29 276.023,24.29 C274.438,24.29 273.1,25.271 272.005,27.233 C270.911,29.195 270.364,33.043 270.364,38.777 L270.401,40.777 L270.401,58.434 L260.178,58.434 L260.178,15.273" id="Fill-7" fill="#F8F8F8"></path>
  <path d="M306.752,24.969 C303.553,24.969 300.888,26.083 298.759,28.308 C296.63,30.534 295.565,33.382 295.565,36.854 C295.565,40.425 296.617,43.318 298.721,45.53 C300.825,47.744 303.49,48.851 306.714,48.851 C309.938,48.851 312.622,47.732 314.764,45.493 C316.905,43.255 317.976,40.376 317.976,36.854 C317.976,33.332 316.925,30.471 314.82,28.271 C312.717,26.07 310.028,24.969 306.752,24.969 Z M306.582,15.273 C310.456,15.273 314.097,16.242 317.504,18.178 C320.912,20.116 323.572,22.744 325.483,26.063 C327.396,29.383 328.351,32.968 328.351,36.816 C328.351,40.689 327.389,44.311 325.465,47.682 C323.541,51.053 320.919,53.687 317.599,55.585 C314.278,57.484 310.619,58.434 306.62,58.434 C300.734,58.434 295.711,56.34 291.548,52.151 C287.386,47.964 285.304,42.877 285.304,36.891 C285.304,30.478 287.655,25.134 292.359,20.857 C296.484,17.136 301.225,15.273 306.582,15.273 L306.582,15.273 Z" id="Fill-8" fill="#F8F8F8"></path>
  <polyline id="Fill-9" fill="#F8F8F8" points="139.483 15.273 128.99 15.273 142.833 49.598 148.032 36.385 139.483 15.273"></polyline>
  <polyline id="Fill-10" fill="#4FBAB8" points="161.489 15.273 144.748 58.434 155.188 58.434 171.929 15.273 161.489 15.273"></polyline>
  <path d="M183.24,55.541 L177.88,49.105 L192.519,36.91 L177.88,24.715 L183.24,18.279 L201.742,33.692 C202.697,34.488 203.25,35.667 203.25,36.91 C203.25,38.153 202.697,39.332 201.742,40.128 L183.24,55.541" id="Fill-11" fill="#4FBAB8"></path>
  <path d="M20.179,55.541 L25.539,49.105 L10.9,36.91 L25.539,24.715 L20.179,18.279 L1.676,33.692 C0.721,34.488 0.169,35.667 0.169,36.91 C0.169,38.153 0.721,39.332 1.676,40.128 L20.179,55.541" id="Fill-12" fill="#4FBAB8"></path>
</svg>
